<svg xmlns="http://www.w3.org/2000/svg" xmlns:xlink="http://www.w3.org/1999/xlink" width="1080" zoomAndPan="magnify" viewBox="0 0 810 809.999993" height="1080" preserveAspectRatio="xMidYMid meet" version="1.0"><path fill="#000000" d="M 229.460938 493.894531 L 229.460938 458.882812 C 266.527344 458.882812 295.292969 422.125 281.0625 383.117188 C 275.847656 368.78125 264.269531 357.214844 249.835938 351.992188 C 210.824219 337.863281 174.066406 366.539062 174.066406 403.597656 L 139.152344 403.597656 C 139.152344 344.503906 196.332031 298.4375 258.230469 317.789062 C 285.269531 326.285156 306.867188 347.785156 315.261719 374.820312 C 334.613281 436.769531 288.539062 493.902344 229.460938 493.902344 Z M 229.460938 493.894531 " fill-opacity="1" fill-rule="nonzero"/><path fill="#000000" d="M 229.558594 424.167969 L 229.558594 459.078125 L 194.648438 459.078125 L 194.648438 424.167969 Z M 194.648438 459.078125 L 194.648438 485.753906 L 167.921875 485.753906 L 167.921875 459.03125 Z M 167.921875 459.078125 L 145.5 459.078125 L 145.5 436.65625 L 167.921875 436.65625 Z M 167.921875 459.078125 " fill-opacity="1" fill-rule="evenodd"/><path fill="#000000" d="M 408.78125 324.074219 C 400.855469 318.492188 390.722656 315.789062 379.1875 315.789062 L 353.972656 315.789062 L 353.972656 395.941406 L 379.417969 395.941406 C 390.945312 395.941406 400.988281 393.058594 409.011719 387.113281 C 413.335938 384.105469 416.757812 379.730469 419.28125 374.324219 C 421.621094 368.921875 422.882812 362.4375 422.882812 355.414062 C 422.882812 348.390625 421.628906 342.085938 419.28125 336.683594 C 416.757812 331.28125 413.335938 326.953125 408.832031 324.074219 Z M 368.792969 329.289062 L 376.71875 329.289062 C 385.546875 329.289062 392.75 331.097656 398.289062 334.507812 C 404.40625 338.289062 407.46875 345.316406 407.46875 355.398438 C 407.46875 365.847656 404.457031 373.230469 398.289062 377.191406 C 393.070312 380.613281 385.859375 382.410156 376.855469 382.410156 L 368.75 382.410156 L 368.75 329.253906 Z M 440.300781 314.707031 C 437.78125 314.707031 435.796875 315.613281 433.996094 317.230469 C 433.167969 318.03125 432.535156 318.964844 432.097656 320.03125 C 431.65625 321.097656 431.449219 322.203125 431.472656 323.355469 C 431.472656 325.878906 432.378906 327.859375 433.996094 329.660156 C 435.617188 331.28125 437.78125 332.183594 440.300781 332.183594 C 441.476562 332.175781 442.605469 331.953125 443.691406 331.515625 C 444.78125 331.082031 445.753906 330.464844 446.609375 329.660156 C 448.226562 328.042969 449.132812 325.878906 449.132812 323.355469 C 449.15625 322.203125 448.949219 321.097656 448.507812 320.03125 C 448.070312 318.964844 447.4375 318.03125 446.609375 317.230469 C 444.800781 315.613281 442.59375 314.707031 440.300781 314.707031 Z M 433.089844 339.386719 L 447.320312 339.386719 L 447.320312 395.941406 L 433.089844 395.941406 Z M 499.019531 344.066406 C 494.695312 340.285156 490.015625 337.949219 484.789062 337.949219 C 476.863281 337.949219 470.378906 340.65625 465.335938 346.054688 C 460.296875 351.269531 457.59375 358.121094 457.59375 366.410156 C 457.59375 374.335938 460.117188 381.179688 465.15625 386.582031 C 470.199219 391.800781 476.863281 394.507812 484.609375 394.507812 C 490.011719 394.507812 494.875 393.070312 498.652344 390.003906 L 498.652344 391.257812 C 498.652344 395.941406 497.398438 399.542969 494.871094 402.066406 C 492.34375 404.589844 488.929688 405.851562 484.605469 405.851562 C 478.117188 405.851562 473.96875 403.328125 468.933594 396.484375 L 459.203125 405.851562 L 459.382812 406.210938 C 461.539062 409.09375 464.601562 411.980469 468.929688 414.679688 C 473.074219 417.386719 478.472656 418.820312 484.78125 418.820312 C 493.246094 418.820312 500.089844 416.296875 505.132812 411.078125 C 510.179688 405.855469 512.699219 399.007812 512.699219 390.539062 L 512.699219 339.207031 L 498.652344 339.207031 L 498.652344 344.074219 Z M 495.289062 377.570312 C 492.765625 380.453125 489.519531 381.710938 485.558594 381.710938 C 481.414062 381.710938 478.355469 380.273438 475.824219 377.570312 C 473.304688 374.683594 472.222656 371.082031 472.222656 366.535156 C 472.222656 361.847656 473.480469 358.246094 475.824219 355.367188 C 478.171875 352.488281 481.59375 351.226562 485.558594 351.226562 C 489.699219 351.226562 492.761719 352.664062 495.289062 355.367188 C 497.8125 358.253906 499.070312 362.039062 499.070312 366.535156 C 499.070312 371.027344 497.816406 374.640625 495.289062 377.570312 Z M 525.132812 339.386719 L 539.363281 339.386719 L 539.363281 395.941406 L 525.132812 395.941406 Z M 532.339844 314.707031 C 529.820312 314.707031 527.835938 315.613281 526.035156 317.230469 C 525.207031 318.03125 524.574219 318.964844 524.136719 320.03125 C 523.695312 321.097656 523.488281 322.203125 523.511719 323.355469 C 523.511719 325.878906 524.417969 327.859375 526.035156 329.660156 C 527.65625 331.28125 529.820312 332.183594 532.339844 332.183594 C 533.511719 332.175781 534.644531 331.953125 535.730469 331.515625 C 536.820312 331.082031 537.792969 330.464844 538.648438 329.660156 C 540.265625 328.042969 541.167969 325.878906 541.167969 323.355469 C 541.195312 322.203125 540.988281 321.097656 540.546875 320.03125 C 540.109375 318.964844 539.476562 318.03125 538.648438 317.230469 C 536.839844 315.613281 534.863281 314.707031 532.339844 314.707031 Z M 570.527344 324.074219 L 556.484375 324.074219 L 556.484375 339.382812 L 548.378906 339.382812 L 548.378906 352.347656 L 556.484375 352.347656 L 556.484375 375.765625 C 556.484375 383.148438 557.921875 388.375 560.808594 391.433594 C 563.691406 394.492188 568.914062 395.9375 576.117188 395.9375 L 582.964844 395.757812 L 583.683594 395.757812 L 583.683594 382.792969 L 578.820312 382.972656 C 575.398438 382.972656 573.238281 382.429688 572.148438 381.164062 C 571.058594 379.902344 570.527344 377.390625 570.527344 373.605469 L 570.527344 352.179688 L 583.855469 352.179688 L 583.855469 339.210938 L 570.527344 339.210938 Z M 650.5 315.613281 L 664.730469 315.613281 L 664.730469 395.941406 L 650.5 395.941406 Z M 650.5 315.613281 " fill-opacity="1" fill-rule="nonzero"/><path fill="#000000" d="M 632.667969 343.703125 C 628.34375 340.101562 622.398438 338.117188 615.011719 338.117188 C 610.324219 338.117188 605.832031 339.195312 601.867188 341.128906 C 598.085938 342.933594 594.484375 346.167969 592.136719 350.132812 L 592.316406 350.3125 L 601.496094 358.960938 C 605.28125 353.015625 609.421875 350.855469 615.003906 350.855469 C 618.015625 350.855469 620.40625 351.578125 622.390625 353.195312 C 624.195312 354.816406 625.273438 356.796875 625.273438 359.316406 L 625.273438 362.023438 C 621.671875 360.945312 618.25 360.40625 614.824219 360.40625 C 607.800781 360.40625 602.035156 362.023438 597.769531 365.269531 C 593.507812 368.515625 591.285156 373.375 591.285156 379.5 C 591.285156 384.902344 593.089844 389.046875 596.867188 392.292969 C 600.648438 395.300781 605.152344 396.976562 610.5625 396.976562 C 615.96875 396.976562 621.007812 394.820312 625.691406 391.03125 L 625.691406 395.71875 L 639.734375 395.71875 L 639.734375 359.332031 C 639.191406 352.660156 637.027344 347.261719 632.710938 343.660156 Z M 607.453125 374.320312 C 609.070312 373.242188 611.464844 372.699219 614.296875 372.699219 C 617.71875 372.699219 621.320312 373.421875 625.109375 374.679688 L 625.109375 380.261719 C 622.097656 383.148438 617.90625 384.585938 612.859375 384.585938 C 610.335938 384.585938 608.535156 384.046875 607.089844 382.964844 C 606.449219 382.472656 605.957031 381.859375 605.609375 381.128906 C 605.257812 380.402344 605.09375 379.632812 605.109375 378.824219 C 605.058594 377.914062 605.242188 377.058594 605.660156 376.25 C 606.082031 375.441406 606.675781 374.796875 607.453125 374.320312 Z M 607.453125 374.320312 " fill-opacity="1" fill-rule="nonzero"/><path fill="#000000" d="M 481.101562 473.714844 C 478.578125 476.601562 475.886719 479.117188 473.898438 480.386719 C 471.914062 481.65625 469.394531 482.367188 466.515625 482.367188 C 462.375 482.367188 458.953125 480.929688 456.25 477.683594 C 453.539062 474.675781 452.105469 470.480469 452.105469 465.796875 C 452.105469 460.929688 453.546875 456.96875 456.25 453.910156 C 458.953125 450.847656 462.367188 449.222656 466.515625 449.222656 C 471.019531 449.222656 475.882812 452.109375 480.023438 456.96875 L 489.390625 447.964844 C 483.269531 440.039062 475.519531 436.257812 466.15625 436.257812 C 458.410156 436.257812 451.609375 439.140625 445.980469 444.722656 C 440.351562 450.308594 437.695312 457.335938 437.695312 465.792969 C 437.695312 474.25 440.578125 481.28125 445.980469 486.859375 C 451.5625 492.453125 458.21875 495.386719 466.144531 495.386719 C 476.414062 495.386719 484.703125 490.882812 490.460938 482.773438 L 481.09375 473.714844 Z M 539.640625 445.261719 C 537.660156 442.375 534.953125 440.21875 531.535156 438.589844 C 528.113281 436.960938 524.148438 436.066406 519.828125 436.066406 C 511.902344 436.066406 505.414062 438.949219 500.554688 444.714844 C 495.871094 450.480469 493.351562 457.503906 493.351562 465.964844 C 493.351562 474.613281 496.0625 481.636719 501.097656 487.035156 C 506.3125 492.4375 513.164062 495.140625 521.632812 495.140625 C 531.179688 495.140625 539.101562 491.128906 545.046875 483.613281 L 545.410156 483.25 L 536.042969 474.25 C 535.140625 475.328125 533.886719 476.40625 532.804688 477.488281 C 531.363281 478.742188 530.09375 479.832031 528.660156 480.5 C 526.390625 481.617188 523.988281 482.160156 521.457031 482.117188 C 517.445312 482.117188 514.253906 481.039062 511.726562 478.699219 C 509.382812 476.539062 507.945312 473.65625 507.582031 470.050781 L 545.226562 470.050781 L 545.410156 464.832031 C 545.410156 461.230469 544.867188 457.628906 543.96875 454.382812 C 543.070312 451.140625 541.625 448.078125 539.644531 445.207031 Z M 508.480469 458.589844 C 509.203125 455.878906 510.460938 453.546875 512.261719 451.917969 C 514.242188 449.933594 516.765625 449.03125 519.644531 449.03125 C 523.066406 449.03125 525.765625 449.933594 527.570312 451.917969 C 528.421875 452.832031 529.089844 453.859375 529.585938 455.003906 C 530.082031 456.148438 530.371094 457.34375 530.457031 458.589844 Z M 508.480469 458.589844 " fill-opacity="1" fill-rule="nonzero"/><path fill="#000000" d="M 594.214844 441.613281 C 589.890625 438.011719 583.945312 436.03125 576.558594 436.03125 C 571.871094 436.03125 567.378906 437.109375 563.414062 439.039062 C 559.632812 440.847656 556.03125 444.082031 553.683594 448.042969 L 553.867188 448.226562 L 563.042969 456.871094 C 566.828125 450.929688 570.96875 448.765625 576.550781 448.765625 C 579.5625 448.765625 581.953125 449.488281 583.9375 451.109375 C 585.742188 452.730469 586.820312 454.710938 586.820312 457.230469 L 586.820312 459.9375 C 583.21875 458.859375 579.796875 458.316406 576.371094 458.316406 C 569.351562 458.316406 563.582031 459.9375 559.316406 463.183594 C 555.054688 466.429688 552.832031 471.289062 552.832031 477.414062 C 552.832031 482.816406 554.636719 486.957031 558.414062 490.203125 C 562.195312 493.214844 566.703125 494.890625 572.109375 494.890625 C 577.515625 494.890625 582.558594 492.730469 587.238281 488.945312 L 587.238281 493.628906 L 601.28125 493.628906 L 601.28125 457.242188 C 600.738281 450.574219 598.574219 445.175781 594.257812 441.574219 Z M 569 472.230469 C 570.617188 471.152344 573.011719 470.613281 575.84375 470.613281 C 579.265625 470.613281 582.867188 471.332031 586.65625 472.59375 L 586.65625 478.175781 C 583.644531 481.058594 579.453125 482.5 574.40625 482.5 C 571.882812 482.5 570.082031 481.957031 568.636719 480.878906 C 568 480.382812 567.503906 479.773438 567.15625 479.042969 C 566.808594 478.3125 566.640625 477.542969 566.65625 476.734375 C 566.605469 475.828125 566.789062 474.96875 567.207031 474.160156 C 567.628906 473.355469 568.226562 472.710938 569 472.230469 Z M 569 472.230469 " fill-opacity="1" fill-rule="nonzero"/><path fill="#000000" d="M 655.449219 442.691406 C 651.4375 438.1875 645.902344 436.019531 638.875 436.019531 C 633.292969 436.019531 628.609375 437.640625 625.183594 440.886719 L 625.183594 437.464844 L 611.3125 437.464844 L 611.3125 493.84375 L 625.542969 493.84375 L 625.542969 462.679688 C 625.542969 458.355469 626.621094 454.9375 628.554688 452.648438 C 630.484375 450.363281 633.238281 449.046875 637.019531 449.046875 C 640.261719 449.046875 642.605469 450.125 644.40625 452.289062 C 646.203125 454.449219 647.113281 457.503906 647.113281 461.117188 L 647.113281 493.894531 L 661.34375 493.894531 L 661.34375 461.117188 C 661.34375 453.371094 659.363281 447.070312 655.398438 442.742188 Z M 389.0625 495.109375 C 387.707031 495.109375 386.355469 495.042969 385.003906 494.910156 C 383.652344 494.777344 382.3125 494.578125 380.980469 494.3125 C 379.652344 494.046875 378.335938 493.71875 377.039062 493.324219 C 375.742188 492.929688 374.464844 492.472656 373.210938 491.953125 C 371.957031 491.4375 370.734375 490.855469 369.535156 490.214844 C 368.339844 489.578125 367.175781 488.878906 366.050781 488.125 C 364.921875 487.371094 363.832031 486.566406 362.785156 485.703125 C 361.734375 484.84375 360.730469 483.933594 359.773438 482.972656 C 358.8125 482.015625 357.902344 481.011719 357.042969 479.960938 C 356.179688 478.914062 355.375 477.824219 354.621094 476.695312 C 353.867188 475.570312 353.167969 474.40625 352.53125 473.210938 C 351.890625 472.011719 351.3125 470.789062 350.792969 469.535156 C 350.273438 468.28125 349.816406 467.007812 349.421875 465.707031 C 349.027344 464.410156 348.699219 463.09375 348.433594 461.765625 C 348.167969 460.433594 347.96875 459.09375 347.835938 457.742188 C 347.703125 456.394531 347.636719 455.039062 347.636719 453.683594 C 347.636719 452.324219 347.703125 450.972656 347.835938 449.621094 C 347.96875 448.273438 348.167969 446.929688 348.433594 445.601562 C 348.699219 444.269531 349.027344 442.957031 349.421875 441.65625 C 349.816406 440.359375 350.273438 439.082031 350.792969 437.828125 C 351.3125 436.578125 351.890625 435.351562 352.53125 434.15625 C 353.167969 432.957031 353.867188 431.796875 354.621094 430.667969 C 355.375 429.539062 356.179688 428.453125 357.042969 427.402344 C 357.902344 426.355469 358.8125 425.351562 359.773438 424.390625 C 360.730469 423.429688 361.734375 422.519531 362.785156 421.660156 C 363.832031 420.800781 364.921875 419.992188 366.050781 419.238281 C 367.175781 418.484375 368.339844 417.789062 369.535156 417.148438 C 370.734375 416.507812 371.957031 415.929688 373.210938 415.410156 C 374.464844 414.890625 375.742188 414.433594 377.039062 414.039062 C 378.335938 413.644531 379.652344 413.316406 380.980469 413.050781 C 382.3125 412.789062 383.652344 412.589844 385.003906 412.457031 C 386.355469 412.320312 387.707031 412.253906 389.0625 412.253906 C 390.421875 412.253906 391.773438 412.320312 393.125 412.457031 C 394.476562 412.589844 395.816406 412.789062 397.144531 413.050781 C 398.476562 413.316406 399.789062 413.644531 401.089844 414.039062 C 402.386719 414.433594 403.664062 414.890625 404.917969 415.410156 C 406.171875 415.929688 407.394531 416.507812 408.589844 417.148438 C 409.789062 417.789062 410.949219 418.484375 412.078125 419.238281 C 413.207031 419.992188 414.296875 420.800781 415.34375 421.660156 C 416.394531 422.519531 417.398438 423.429688 418.355469 424.390625 C 419.316406 425.351562 420.226562 426.355469 421.085938 427.402344 C 421.945312 428.453125 422.753906 429.539062 423.507812 430.667969 C 424.261719 431.796875 424.957031 432.957031 425.597656 434.15625 C 426.238281 435.351562 426.816406 436.578125 427.335938 437.828125 C 427.855469 439.082031 428.3125 440.359375 428.707031 441.65625 C 429.101562 442.957031 429.429688 444.269531 429.695312 445.601562 C 429.960938 446.929688 430.160156 448.273438 430.292969 449.621094 C 430.425781 450.972656 430.492188 452.324219 430.492188 453.683594 C 430.492188 455.039062 430.425781 456.394531 430.292969 457.742188 C 430.160156 459.09375 429.960938 460.433594 429.695312 461.765625 C 429.429688 463.09375 429.101562 464.410156 428.707031 465.707031 C 428.3125 467.007812 427.855469 468.28125 427.335938 469.535156 C 426.816406 470.789062 426.238281 472.011719 425.597656 473.210938 C 424.957031 474.40625 424.261719 475.570312 423.507812 476.695312 C 422.753906 477.824219 421.945312 478.914062 421.085938 479.960938 C 420.226562 481.011719 419.316406 482.015625 418.355469 482.972656 C 417.398438 483.933594 416.394531 484.84375 415.34375 485.703125 C 414.296875 486.566406 413.207031 487.371094 412.078125 488.125 C 410.949219 488.878906 409.789062 489.578125 408.589844 490.214844 C 407.394531 490.855469 406.171875 491.4375 404.917969 491.953125 C 403.664062 492.472656 402.386719 492.929688 401.089844 493.324219 C 399.789062 493.71875 398.476562 494.046875 397.144531 494.3125 C 395.816406 494.578125 394.476562 494.777344 393.125 494.910156 C 391.773438 495.042969 390.421875 495.109375 389.0625 495.109375 Z M 389.0625 426.890625 C 374.292969 426.890625 362.226562 438.960938 362.226562 453.726562 C 362.226562 468.496094 374.296875 480.5625 389.0625 480.5625 C 403.832031 480.5625 415.898438 468.496094 415.898438 453.726562 C 415.898438 438.960938 403.832031 426.890625 389.0625 426.890625 Z M 389.0625 426.890625 " fill-opacity="1" fill-rule="nonzero"/></svg>